<svg width="48" height="48" viewBox="0 0 48 48" fill="none" xmlns="http://www.w3.org/2000/svg">
    <path d="M8.4 15.1001C8.4 17.1436 6.74345 18.8001 4.7 18.8001C2.65655 18.8001 1 17.1436 1 15.1001C1 13.0567 2.65655 11.4001 4.7 11.4001C6.74345 11.4001 8.4 13.0567 8.4 15.1001Z" fill="#333333"/>
    <path d="M25.9 6.10014C21.98 7.78014 15.8 11.7001 12.6 14.4001C9.39993 17.1002 5.20001 21.9001 3.59996 24.5001C1.99992 27.1001 0.949992 29.8001 1.79997 33.9001C2.64994 38.0001 7.59997 40.6001 8.99997 41.0001C10.4 41.4001 12.1999 41.4001 12.9 40.4001C13.6 39.4001 13.3999 39.2001 14.1 34.9001C14.8 30.6001 16.1 27.3001 16.8 25.9001C17.5 24.5001 18.8 22.8001 19.9 22.1001C21 21.4001 22.2 21.9001 22.7 22.6001C23.2 23.3001 22.7 26.9001 22.7 28.8001C22.6999 30.7001 22.7 35.1001 23.1 38.7001C23.5 42.3001 24.2 45.3001 26.5 46.7001C28.8 48.1001 30.9 46.9001 31.3 45.1001C31.7 43.3001 31.6 41.2001 31.1 38.9001C30.6 36.6001 29.3 33.9001 28.5 31.9001C27.7 29.9001 27.3333 27.7668 27.2 26.9001C26.6 23.7001 29.3 24.1001 30.4 24.5001C31.5 24.9001 33.2 26.2001 35.6 28.0001C37.52 29.4401 40.4 31.1335 41.6 31.8001C45.36 33.3201 46.3 30.9001 46.6 29.3001C46.9 27.7001 47.2 22.3001 46.9 20.9001C46.6 19.5001 46.1 18.3001 44.6 17.5001C43.1 16.7001 39.4666 16.5335 37.8 16.7001C34.5 16.8001 28.9 18.5001 25.6 19.7001C22.96 20.6601 23.3333 18.8668 24 17.9001C26 15.0001 31.5919 11.3661 34 9.60014C35.5 8.50015 38.1316 5.90014 36.7 4.20013C35.2684 2.50012 30.8 4.00014 25.9 6.10014Z" fill="#333333"/>
</svg>
